<svg width="147" height="179" viewBox="0 0 147 179" fill="none" xmlns="http://www.w3.org/2000/svg">
<path fill-rule="evenodd" clip-rule="evenodd" d="M113.966 0.999999C109.862 4.93178 107.307 10.4674 107.307 16.5999V17.3999C107.307 29.3292 116.977 38.9999 128.907 38.9999H129.707C136.043 38.9999 141.742 36.2714 145.693 31.9253V158.1C145.693 169.643 136.336 179 124.793 179H22.2065C10.6638 179 1.30652 169.643 1.30652 158.1V21.9C1.30652 10.3572 10.6638 0.999999 22.2065 0.999999H113.966Z" fill="#495795" fill-opacity="0.197154"/>
<path d="M113.966 0.999999L114.312 1.36106L115.211 0.499999H113.966V0.999999ZM145.693 31.9253H146.193V30.632L145.323 31.5889L145.693 31.9253ZM107.807 16.5999C107.807 10.6093 110.302 5.20245 114.312 1.36106L113.621 0.638938C109.422 4.66112 106.807 10.3255 106.807 16.5999H107.807ZM107.807 17.3999V16.5999H106.807V17.3999H107.807ZM128.907 38.4999C117.253 38.4999 107.807 29.0531 107.807 17.3999H106.807C106.807 29.6054 116.701 39.4999 128.907 39.4999V38.4999ZM129.707 38.4999H128.907V39.4999H129.707V38.4999ZM145.323 31.5889C141.463 35.8352 135.896 38.4999 129.707 38.4999V39.4999C136.19 39.4999 142.021 36.7076 146.063 32.2616L145.323 31.5889ZM145.193 31.9253V158.1H146.193V31.9253H145.193ZM145.193 158.1C145.193 169.367 136.06 178.5 124.793 178.5V179.5C136.612 179.5 146.193 169.919 146.193 158.1H145.193ZM124.793 178.5H22.2065V179.5H124.793V178.5ZM22.2065 178.5C10.9399 178.5 1.80652 169.367 1.80652 158.1H0.806519C0.806519 169.919 10.3876 179.5 22.2065 179.5V178.5ZM1.80652 158.1V21.9H0.806519V158.1H1.80652ZM1.80652 21.9C1.80652 10.6334 10.9399 1.5 22.2065 1.5V0.499999C10.3876 0.499999 0.806519 10.0811 0.806519 21.9H1.80652ZM22.2065 1.5H113.966V0.499999H22.2065V1.5Z" fill="#495795"/>
</svg>
